<svg width="30" height="30" viewBox="0 0 30 30" fill="current" xmlns="http://www.w3.org/2000/svg">
<path d="M15 17.0089C16.1095 17.0089 17.0089 16.1095 17.0089 15C17.0089 13.8905 16.1095 12.9911 15 12.9911C13.8905 12.9911 12.9911 13.8905 12.9911 15C12.9911 16.1095 13.8905 17.0089 15 17.0089Z" />
<path d="M23.9728 16.8415L23.9531 16.8256L22.6323 15.7898C22.5486 15.7236 22.4819 15.6385 22.4375 15.5415C22.3931 15.4445 22.3724 15.3384 22.377 15.2319V14.748C22.3728 14.6422 22.3938 14.5368 22.4382 14.4406C22.4827 14.3444 22.5493 14.2602 22.6327 14.1948L23.9531 13.1585L23.9728 13.1426C24.1765 12.9729 24.3131 12.7364 24.3584 12.4752C24.4036 12.2141 24.3545 11.9453 24.2197 11.7171L22.4322 8.62416C22.4302 8.62124 22.4283 8.61816 22.4268 8.61495C22.2913 8.38985 22.0813 8.2193 21.8332 8.13291C21.5851 8.04651 21.3146 8.04974 21.0687 8.14202L21.054 8.14746L19.5013 8.77232C19.4033 8.81195 19.2973 8.82771 19.192 8.81833C19.0867 8.80894 18.9851 8.77467 18.8957 8.71833C18.7584 8.63183 18.6189 8.55008 18.4771 8.47307C18.3852 8.42324 18.3063 8.3525 18.2468 8.26657C18.1873 8.18064 18.1487 8.08192 18.1344 7.97837L17.9004 6.32143L17.8954 6.29129C17.8445 6.03465 17.7067 5.80336 17.5054 5.6363C17.304 5.46923 17.0513 5.37657 16.7896 5.37388H13.2104C12.9451 5.37473 12.6886 5.46919 12.4861 5.64061C12.2836 5.81203 12.148 6.04943 12.1034 6.31096L12.0996 6.3344L11.8665 7.9947C11.8522 8.09795 11.814 8.19644 11.7549 8.28232C11.6959 8.3682 11.6176 8.43911 11.5262 8.4894C11.3841 8.56596 11.2445 8.6472 11.1077 8.73298C11.0184 8.78897 10.9171 8.82298 10.8122 8.83222C10.7072 8.84146 10.6015 8.82567 10.5038 8.78613L8.9498 8.15834L8.93515 8.15248C8.68883 8.0601 8.41792 8.057 8.16955 8.14371C7.92118 8.23043 7.71107 8.40147 7.57577 8.62709L7.57033 8.6363L5.78029 11.7313C5.64537 11.9598 5.59613 12.2288 5.64137 12.4903C5.68661 12.7518 5.82338 12.9886 6.02722 13.1585L6.0469 13.1744L7.36777 14.2102C7.45141 14.2764 7.51817 14.3615 7.56255 14.4585C7.60693 14.5554 7.62767 14.6616 7.62307 14.7681V15.252C7.62726 15.3578 7.60626 15.4632 7.56181 15.5594C7.51735 15.6556 7.45071 15.7398 7.36735 15.8052L6.0469 16.8415L6.02722 16.8574C5.82358 17.0271 5.68692 17.2636 5.64168 17.5248C5.59644 17.7859 5.64558 18.0547 5.78029 18.2829L7.56782 21.3758C7.56988 21.3788 7.5717 21.3818 7.57326 21.385C7.70871 21.6101 7.91871 21.7807 8.16681 21.8671C8.4149 21.9535 8.68542 21.9503 8.93138 21.858L8.94603 21.8525L10.4975 21.2277C10.5955 21.1881 10.7015 21.1723 10.8068 21.1817C10.9121 21.1911 11.0137 21.2253 11.1031 21.2817C11.2404 21.3684 11.3799 21.4502 11.5216 21.5269C11.6135 21.5768 11.6924 21.6475 11.752 21.7334C11.8115 21.8194 11.85 21.9181 11.8644 22.0216L12.0971 23.6786L12.1021 23.7087C12.1532 23.9658 12.2913 24.1974 12.4931 24.3645C12.695 24.5316 12.9483 24.624 13.2104 24.6261H16.7896C17.055 24.6253 17.3115 24.5308 17.514 24.3594C17.7165 24.188 17.852 23.9506 17.8966 23.689L17.9004 23.6656L18.1335 22.0053C18.1481 21.9019 18.1866 21.8032 18.246 21.7173C18.3055 21.6314 18.3842 21.5606 18.4759 21.5106C18.619 21.4336 18.7588 21.352 18.8944 21.267C18.9837 21.211 19.085 21.177 19.19 21.1678C19.295 21.1585 19.4007 21.1743 19.4983 21.2139L21.0523 21.8396L21.067 21.8454C21.3133 21.938 21.5843 21.9412 21.8327 21.8544C22.0811 21.7677 22.2912 21.5966 22.4264 21.3708C22.428 21.3677 22.4298 21.3646 22.4318 21.3616L24.2193 18.2691C24.3545 18.0407 24.4039 17.7715 24.3588 17.51C24.3136 17.2484 24.1768 17.0114 23.9728 16.8415V16.8415ZM18.3445 15.1574C18.314 15.8055 18.0959 16.4308 17.7166 16.9572C17.3373 17.4837 16.8133 17.8886 16.2081 18.1227C15.603 18.3568 14.9429 18.4101 14.3081 18.276C13.6732 18.142 13.091 17.8263 12.6323 17.3675C12.1735 16.9087 11.8579 16.3264 11.7239 15.6916C11.5899 15.0567 11.6433 14.3966 11.8775 13.7915C12.1117 13.1864 12.5166 12.6624 13.0431 12.2832C13.5696 11.904 14.1949 11.686 14.8431 11.6556C15.3084 11.6351 15.7728 11.7116 16.207 11.8804C16.6411 12.0491 17.0353 12.3063 17.3646 12.6357C17.694 12.965 17.9511 13.3593 18.1198 13.7935C18.2885 14.2276 18.365 14.6921 18.3445 15.1574V15.1574Z" />
</svg>
