<svg width="16" height="17" viewBox="0 0 16 17" fill="none" xmlns="http://www.w3.org/2000/svg">
<path fill-rule="evenodd" clip-rule="evenodd" d="M15.4727 12.2557C15.8103 11.9181 16 11.4603 16 10.9829V2.71895C15.9993 2.24178 15.8094 1.78435 15.472 1.44694C15.1346 1.10953 14.6772 0.919661 14.2 0.918945H5.936C5.45862 0.918977 5.0008 1.10863 4.66324 1.44619C4.32569 1.78375 4.13603 2.24157 4.136 2.71895V4.21094H10.32C10.953 4.21191 11.5599 4.46382 12.0075 4.91144C12.4551 5.35907 12.707 5.96591 12.708 6.59894V12.7829H14.2C14.6774 12.7829 15.1352 12.5932 15.4727 12.2557ZM11.4115 16.4664C11.701 16.1769 11.8637 15.7844 11.864 15.3749V6.59894C11.8642 6.39612 11.8244 6.19525 11.7469 6.00783C11.6694 5.82041 11.5557 5.65011 11.4122 5.50669C11.2688 5.36328 11.0985 5.24956 10.9111 5.17204C10.7237 5.09452 10.5228 5.05473 10.32 5.05495H1.544C1.34118 5.05474 1.14031 5.09453 0.952889 5.17205C0.765467 5.24956 0.595174 5.36329 0.451759 5.5067C0.308343 5.65012 0.194621 5.82041 0.117102 6.00783C0.0395835 6.19525 -0.00020974 6.39612 8.31343e-07 6.59894V15.3749C0.000249719 15.7844 0.163001 16.1769 0.452503 16.4664C0.742005 16.7559 1.13458 16.9187 1.544 16.9189H10.32C10.7294 16.9187 11.122 16.7559 11.4115 16.4664ZM5.52757 12.6872L8.33557 9.87917C8.41207 9.79962 8.45432 9.69324 8.45325 9.58287C8.45217 9.47251 8.40785 9.36697 8.32981 9.28893C8.25177 9.21089 8.14623 9.16657 8.03587 9.16549C7.9255 9.16441 7.81912 9.20667 7.73957 9.28317L5.23157 11.7952L4.12757 10.6872C4.0484 10.6084 3.94126 10.5642 3.82957 10.5642C3.71788 10.5642 3.61074 10.6084 3.53157 10.6872C3.4917 10.7259 3.46 10.7722 3.43835 10.8234C3.4167 10.8746 3.40555 10.9296 3.40555 10.9852C3.40555 11.0407 3.4167 11.0958 3.43835 11.1469C3.46 11.1981 3.4917 11.2445 3.53157 11.2832L4.93557 12.6872C4.97438 12.7262 5.0205 12.7571 5.0713 12.7782C5.1221 12.7993 5.17656 12.8102 5.23157 12.8102C5.28658 12.8102 5.34104 12.7993 5.39184 12.7782C5.44264 12.7571 5.48876 12.7262 5.52757 12.6872Z" fill="white"/>
</svg>
