<svg viewBox="0 0 21 21" fill="current" stroke="current" xmlns="http://www.w3.org/2000/svg">
<path d="M15.5715 18.9735C15.5712 19.5109 15.3576 20.0261 14.9776 20.4061C14.5976 20.7861 14.0824 20.9997 13.545 21H2.0265C1.48914 20.9997 0.973882 20.7861 0.59391 20.4061C0.213938 20.0261 0.000327942 19.5109 1.09044e-06 18.9735V7.455C-0.000275196 7.1888 0.0519533 6.92516 0.153697 6.67916C0.25544 6.43317 0.4047 6.20966 0.592933 6.02143C0.781166 5.8332 1.00468 5.68394 1.25067 5.5822C1.49666 5.48045 1.7603 5.42822 2.0265 5.4285H13.545C13.8112 5.42822 14.0748 5.48044 14.3208 5.58219C14.5668 5.68393 14.7903 5.83319 14.9786 6.02142C15.1668 6.20966 15.3161 6.43317 15.4178 6.67916C15.5196 6.92515 15.5718 7.1888 15.5715 7.455V18.9735Z" />
<path fill-rule="evenodd" clip-rule="evenodd" d="M11.8545 0H14.5688C14.7142 0.00219384 14.8529 0.0615135 14.955 0.165147C15.0571 0.26878 15.1143 0.408409 15.1143 0.553875C15.1143 0.699342 15.0571 0.83897 14.955 0.942603C14.8529 1.04624 14.7142 1.10556 14.5688 1.10775H11.8545C11.7094 1.105 11.5712 1.04543 11.4696 0.94186C11.368 0.838288 11.311 0.698978 11.311 0.553875C11.311 0.408773 11.368 0.269462 11.4696 0.16589C11.5712 0.0623179 11.7094 0.00275348 11.8545 0ZM5.4285 2.3625C5.42825 1.73676 5.67635 1.13649 6.11832 0.693535C6.5603 0.250576 7.16001 0.00113787 7.78575 0H9.1455C9.2924 0 9.43328 0.0583545 9.53715 0.162226C9.64102 0.266098 9.69938 0.406978 9.69938 0.553875C9.69938 0.700772 9.64102 0.841652 9.53715 0.945524C9.43328 1.0494 9.2924 1.10775 9.1455 1.10775H7.78575C7.45297 1.10775 7.13382 1.23995 6.89851 1.47526C6.6632 1.71057 6.531 2.02972 6.531 2.3625V3.2655C6.531 3.4117 6.47292 3.55191 6.36954 3.65529C6.26616 3.75867 6.12595 3.81675 5.97975 3.81675C5.83355 3.81675 5.69334 3.75867 5.58996 3.65529C5.48658 3.55191 5.4285 3.4117 5.4285 3.2655V2.3625ZM21 13.2142C20.9989 13.84 20.7494 14.4397 20.3065 14.8817C19.8635 15.3236 19.2632 15.5717 18.6375 15.5715H17.7345C17.5883 15.5715 17.4481 15.5134 17.3447 15.41C17.2413 15.3067 17.1832 15.1665 17.1832 15.0202C17.1832 14.874 17.2413 14.7338 17.3447 14.6305C17.4481 14.5271 17.5883 14.469 17.7345 14.469H18.6375C18.8023 14.469 18.9654 14.4365 19.1177 14.3735C19.2699 14.3104 19.4082 14.218 19.5247 14.1015C19.6413 13.985 19.7337 13.8467 19.7967 13.6944C19.8598 13.5422 19.8922 13.379 19.8922 13.2142V11.8545C19.8922 11.7076 19.9506 11.5667 20.0545 11.4629C20.1583 11.359 20.2992 11.3006 20.4461 11.3006C20.593 11.3006 20.7339 11.359 20.8378 11.4629C20.9416 11.5667 21 11.7076 21 11.8545V13.2142ZM21 9.1455C20.9972 9.29058 20.9377 9.42878 20.8341 9.53041C20.7305 9.63203 20.5912 9.68896 20.4461 9.68896C20.301 9.68896 20.1617 9.63203 20.0581 9.53041C19.9546 9.42878 19.895 9.29058 19.8922 9.1455V6.43125C19.8922 6.28435 19.9506 6.14347 20.0545 6.0396C20.1583 5.93573 20.2992 5.87738 20.4461 5.87738C20.593 5.87738 20.7339 5.93573 20.8378 6.0396C20.9416 6.14347 21 6.28435 21 6.43125V9.1455ZM21 3.717C21 3.8639 20.9416 4.00478 20.8378 4.10865C20.7339 4.21252 20.593 4.27087 20.4461 4.27087C20.2992 4.27087 20.1583 4.21252 20.0545 4.10865C19.9506 4.00478 19.8922 3.8639 19.8922 3.717V2.3625C19.8922 2.02972 19.7601 1.71057 19.5247 1.47526C19.2894 1.23995 18.9703 1.10775 18.6375 1.10775H17.283C17.1375 1.10556 16.9988 1.04624 16.8967 0.942603C16.7946 0.83897 16.7374 0.699342 16.7374 0.553875C16.7374 0.408409 16.7946 0.26878 16.8967 0.165147C16.9988 0.0615135 17.1375 0.00219384 17.283 0H18.6375C19.2638 0.000940092 19.8641 0.250147 20.307 0.692999C20.7499 1.13585 20.9991 1.73621 21 2.3625V3.717Z" />
</svg>
