<svg width="20" height="17" viewBox="0 0 20 17" fill="current" xmlns="http://www.w3.org/2000/svg">
<path d="M18.0638 4.74987L10.7575 1.14007C10.5218 1.02442 10.2626 0.964285 10 0.964285C9.73738 0.964285 9.47825 1.02442 9.24247 1.14007L1.93625 4.74987C1.54283 4.94074 1.21116 5.2386 0.979241 5.60931C0.747326 5.98002 0.624555 6.40857 0.625001 6.84585V14.5723C0.625001 15.8647 1.6889 16.916 2.99679 16.916H17.0032C18.3111 16.916 19.375 15.8647 19.375 14.5723V6.84585C19.3754 6.40857 19.2527 5.98002 19.0208 5.60931C18.7888 5.2386 18.4572 4.94074 18.0638 4.74987ZM9.84849 2.3379C9.89565 2.31476 9.94748 2.30274 10 2.30274C10.0525 2.30274 10.1044 2.31476 10.1515 2.3379L17.2405 5.83929L10.0419 9.39677C9.9947 9.4199 9.94287 9.43193 9.89035 9.43193C9.83782 9.43193 9.786 9.4199 9.73884 9.39677L2.64858 5.89495L9.84849 2.3379Z" />
</svg>
